HIERARCHY
ROOT SpineBase
{
  OFFSET 0.000000 0.000000 0.000000
  CHANNELS 6 Xposition Yposition Zposition Zrotation Xrotation Yrotation
  JOINT SpineMid
  {
    OFFSET -0.000000 28.188737 0.000000
    CHANNELS 3 Zrotation Xrotation Yrotation
    JOINT SpineShoulder
    {
      OFFSET 0.010779 21.012244 -0.634390
      CHANNELS 3 Zrotation Xrotation Yrotation
      JOINT Neck
      {
        OFFSET 0.013033 6.974304 -0.440291
        CHANNELS 3 Zrotation Xrotation Yrotation
        JOINT Head
        {
          OFFSET 1.413625 12.703843 0.081309
          CHANNELS 3 Zrotation Xrotation Yrotation
          End Site
          {
            OFFSET 0 0 0
          }
        }
      }
      JOINT ShoulderLeft
      {
        OFFSET -15.114365 -1.340791 -2.944971
        CHANNELS 3 Zrotation Xrotation Yrotation
        JOINT ElbowLeft
        {
          OFFSET -4.964100 -23.361032 -1.951656
          CHANNELS 3 Zrotation Xrotation Yrotation
          JOINT WristLeft
          {
            OFFSET 0.766074 -20.059106 -4.711792
            CHANNELS 3 Zrotation Xrotation Yrotation
            JOINT HandLeft
            {
              OFFSET 1.790204 -4.651933 -0.518840
              CHANNELS 3 Zrotation Xrotation Yrotation
              JOINT HandTipLeft
              {
                OFFSET 0.339074 -6.401216 -1.498017
                CHANNELS 3 Zrotation Xrotation Yrotation
                End Site
                {
                  OFFSET 0 0 0
                }
              }
              JOINT ThumbLeft
              {
                OFFSET 2.828808 0.417967 -1.752508
                CHANNELS 3 Zrotation Xrotation Yrotation
                End Site
                {
                  OFFSET 0 0 0
                }
              }
            }
          }
        }
      }
      JOINT ShoulderRight
      {
        OFFSET 16.190865 -3.322979 2.687893
        CHANNELS 3 Zrotation Xrotation Yrotation
        JOINT ElbowRight
        {
          OFFSET 5.493445 -25.238572 2.436064
          CHANNELS 3 Zrotation Xrotation Yrotation
          JOINT WristRight
          {
            OFFSET -1.146310 -19.545861 -5.754198
            CHANNELS 3 Zrotation Xrotation Yrotation
            JOINT HandRight
            {
              OFFSET -2.582601 -4.345526 -0.638566
              CHANNELS 3 Zrotation Xrotation Yrotation
              JOINT HandTipRight
              {
                OFFSET -0.909112 -5.436556 -1.748135
                CHANNELS 3 Zrotation Xrotation Yrotation
                End Site
                {
                  OFFSET 0 0 0
                }
              }
              JOINT ThumbRight
              {
                OFFSET -2.980717 2.267028 0.119973
                CHANNELS 3 Zrotation Xrotation Yrotation
                End Site
                {
                  OFFSET 0 0 0
                }
              }
            }
          }
        }
      }
    }
  }
  JOINT HipLeft
  {
    OFFSET -7.521664 1.185376 -4.159823
    CHANNELS 3 Zrotation Xrotation Yrotation
    JOINT KneeLeft
    {
      OFFSET -2.087070 -26.446013 3.047739
      CHANNELS 3 Zrotation Xrotation Yrotation
      JOINT AnkleLeft
      {
        OFFSET -3.215221 -32.141160 8.978624
        CHANNELS 3 Zrotation Xrotation Yrotation
        JOINT FootLeft
        {
          OFFSET 2.761569 -4.305807 -8.141884
          CHANNELS 3 Zrotation Xrotation Yrotation
          End Site
          {
            OFFSET 0 0 0
          }
        }
      }
    }
  }
  JOINT HipRight
  {
    OFFSET 6.894652 0.509283 -1.983083
    CHANNELS 3 Zrotation Xrotation Yrotation
    JOINT KneeRight
    {
      OFFSET -4.171589 -27.749907 4.098831
      CHANNELS 3 Zrotation Xrotation Yrotation
      JOINT AnkleRight
      {
        OFFSET -3.746754 -30.782462 8.777768
        CHANNELS 3 Zrotation Xrotation Yrotation
        JOINT FootRight
        {
          OFFSET 1.108600 -3.709098 -11.887760
          CHANNELS 3 Zrotation Xrotation Yrotation
          End Site
          {
            OFFSET 0 0 0
          }
        }
      }
    }
  }
}
MOTION
Frames: 12
Frame Time: 0.033333
37.776781 66.360578 366.636249 0.000000 0.000000 -8.586313 -0.000000 0.000000 8.586313 -0.000000 0.000000 0.000000 -0.000000 0.000000 0.000000 0.000000 0.000000 0.000000 -0.000000 0.000000 0.000000 -0.000000 0.000000 0.000000 -0.000000 0.000000 0.000000 -0.000000 0.000000 0.000000 0.000000 0.000000 0.000000 0.000000 0.000000 0.000000 -0.000000 0.000000 0.000000 -0.000000 0.000000 0.000000 -0.000000 0.000000 0.000000 -0.000000 0.000000 0.000000 0.000000 0.000000 0.000000 0.000000 0.000000 0.000000 -0.000000 0.000000 8.586313 -0.000000 0.000000 0.000000 -0.000000 0.000000 0.000000 0.000000 0.000000 0.000000 -0.000000 0.000000 8.586313 -0.000000 0.000000 0.000000 -0.000000 0.000000 0.000000 0.000000 0.000000 0.000000
37.830055 66.371735 366.646507 0.075049 -0.017223 -8.729167 -0.076794 0.005633 8.729182 -0.000000 0.000000 0.000000 -0.000000 0.000000 0.000000 0.000000 0.000000 0.000000 -0.000000 0.000000 0.000000 -0.000000 0.000000 0.000000 -2.617824 -1.681938 -0.397866 4.053769 -1.576217 -0.192163 0.000000 0.000000 0.000000 0.000000 0.000000 0.000000 -0.000000 0.000000 0.000000 -1.559429 -0.029129 0.460093 4.313170 1.437831 -1.772697 -0.674857 -2.291588 0.797289 0.000000 0.000000 0.000000 0.000000 0.000000 0.000000 -0.076794 0.005633 8.729182 1.310822 -0.273527 0.396873 -2.203463 4.925379 4.056772 0.000000 0.000000 0.000000 -0.076794 0.005633 8.729182 -0.000000 0.000000 0.000000 -0.000000 0.000000 0.000000 0.000000 0.000000 0.000000
37.871156 66.379157 366.654111 0.132728 -0.030368 -8.848729 -0.135819 0.009590 8.848775 -0.000000 0.000000 0.000000 -0.000000 0.000000 0.000000 0.000000 0.000000 0.000000 -0.000000 0.000000 0.000000 0.989005 0.498716 -0.217282 -5.368872 -3.342295 -0.548685 6.860672 -2.962732 -0.391424 0.000000 0.000000 0.000000 0.000000 0.000000 0.000000 1.274110 -0.444635 0.031061 -4.034801 0.377672 0.814556 7.609096 2.509205 -3.198205 -1.022059 -4.171107 1.474751 0.000000 0.000000 0.000000 0.000000 0.000000 0.000000 -0.135819 0.009590 8.848775 2.282661 -0.460741 0.693609 -3.897759 7.953403 6.617859 0.000000 0.000000 0.000000 -0.135819 0.009590 8.848775 -0.000000 0.000000 0.000000 -0.000000 0.000000 0.000000 0.000000 0.000000 0.000000
37.900082 66.382843 366.659060 0.173026 -0.039434 -8.945077 -0.177053 0.012051 8.945156 -0.000000 0.000000 0.000000 -0.000000 0.000000 0.000000 0.000000 0.000000 0.000000 -0.000000 0.000000 0.000000 1.364596 0.674927 -0.302257 -6.867901 -4.280192 -0.733194 8.626220 -4.009959 -0.529205 0.000000 0.000000 0.000000 0.000000 0.000000 0.000000 1.779676 -0.613507 0.047597 -5.394590 0.505023 1.076208 9.938271 3.306661 -4.276191 -1.133629 -5.674590 2.035748 0.000000 0.000000 0.000000 0.000000 0.000000 0.000000 -0.177053 0.012051 8.945156 2.920850 -0.568205 0.888460 -5.037237 9.677516 8.156728 0.000000 0.000000 0.000000 -0.177053 0.012051 8.945156 -0.000000 0.000000 0.000000 -0.000000 0.000000 0.000000 0.000000 0.000000 0.000000
37.916835 66.382792 366.661354 0.195942 -0.044421 -9.018261 -0.200483 0.013158 9.018360 -0.000000 0.000000 0.000000 -0.000000 0.000000 0.000000 0.000000 0.000000 0.000000 -0.000000 0.000000 0.000000 1.660752 0.802909 -0.370288 -7.753025 -4.850656 -0.840947 9.470703 -4.648381 -0.579548 0.000000 0.000000 0.000000 0.000000 0.000000 0.000000 2.188121 -0.743321 0.063325 -6.321419 0.594450 1.237618 11.342169 3.895760 -5.013123 -1.072523 -6.834265 2.478683 0.000000 0.000000 0.000000 0.000000 0.000000 0.000000 -0.200483 0.013158 9.018360 3.228853 -0.600103 0.980469 -5.631669 10.402688 8.922306 0.000000 0.000000 0.000000 -0.200483 0.013158 9.018360 -0.000000 0.000000 0.000000 -0.000000 0.000000 0.000000 0.000000 0.000000 0.000000
37.921414 66.379006 366.660994 0.201479 -0.045329 -9.068301 -0.206105 0.013006 9.068404 -0.000000 0.000000 0.000000 -0.506724 0.787480 -0.080860 0.000000 0.000000 0.000000 -0.000000 0.000000 0.000000 1.877421 0.882990 -0.420756 -8.061284 -5.084071 -0.865277 9.447117 -4.865337 -0.533946 0.000000 0.000000 0.000000 0.000000 0.000000 0.000000 2.493643 -0.832052 0.077309 -6.819994 0.646533 1.298129 11.846444 4.317446 -5.414568 -0.873685 -7.674287 2.798347 0.000000 0.000000 0.000000 0.000000 0.000000 0.000000 -0.206105 0.013006 9.068404 3.207581 -0.558144 0.969105 -5.693306 10.251383 9.021936 0.000000 0.000000 0.000000 -0.206105 0.013006 9.068404 -0.000000 0.000000 0.000000 -0.000000 0.000000 0.000000 0.000000 0.000000 0.000000
37.897778 66.363446 366.661060 0.164189 -0.053009 -9.063598 -0.170489 0.026482 9.063713 -0.000000 0.000000 0.000000 -0.592424 0.995323 -0.101756 0.000000 0.000000 0.000000 -0.000000 0.000000 0.000000 2.027764 0.970292 -0.455261 -7.462803 -4.510073 -0.593927 7.938798 -5.111338 -0.430704 0.000000 0.000000 0.000000 0.000000 0.000000 0.000000 2.616748 -0.944215 0.068265 -6.526474 0.600173 1.198236 11.658636 4.670861 -5.497308 -1.762540 -7.286676 2.945291 0.000000 0.000000 0.000000 0.000000 0.000000 0.000000 -0.170489 0.026482 9.063713 2.920532 -0.432078 0.871552 -6.305058 11.930524 11.454895 0.000000 0.000000 0.000000 -0.170489 0.026482 9.063713 -0.000000 0.000000 0.000000 -0.000000 0.000000 0.000000 0.000000 0.000000 0.000000
37.876354 66.349189 366.656956 0.133101 -0.041336 -9.084043 -0.137958 0.019803 9.084115 -0.000000 0.000000 0.000000 -0.668763 1.124572 -0.114216 0.000000 0.000000 0.000000 -0.000000 0.000000 0.000000 1.997579 0.850446 -0.450529 -5.702490 -3.932611 -0.502767 6.187895 -3.741098 -0.260379 0.000000 0.000000 0.000000 0.000000 0.000000 0.000000 2.535023 -0.941025 0.060378 -5.709283 0.531962 0.980534 9.404973 4.792449 -4.954250 0.077761 -10.936345 3.569818 0.000000 0.000000 0.000000 0.000000 0.000000 0.000000 -0.137958 0.019803 9.084115 2.186083 -0.216361 0.637401 -5.815114 10.969190 11.712648 0.000000 0.000000 0.000000 -0.137958 0.019803 9.084115 -0.000000 0.000000 0.000000 -0.000000 0.000000 0.000000 0.000000 0.000000 0.000000
37.853012 66.334746 366.650136 0.093871 -0.022249 -9.114350 -0.096210 0.007099 9.114374 -0.000000 0.000000 0.000000 -0.692869 1.131268 -0.114527 0.000000 0.000000 0.000000 -0.000000 0.000000 0.000000 1.729001 0.643201 -0.390565 -3.291034 -2.606262 -0.249140 2.471346 -2.855959 0.093264 0.000000 0.000000 0.000000 0.000000 0.000000 0.000000 2.520189 -0.865273 0.073579 -5.362697 0.560710 0.854596 8.471343 4.402553 -4.502379 0.095171 -9.909745 3.202856 0.000000 0.000000 0.000000 0.000000 0.000000 0.000000 -0.096210 0.007099 9.114374 1.246190 0.027402 0.345495 -2.705028 3.450335 4.477706 0.000000 0.000000 0.000000 -0.096210 0.007099 9.114374 -0.000000 0.000000 0.000000 -0.000000 0.000000 0.000000 0.000000 0.000000 0.000000
37.835674 66.329715 366.631804 0.075773 -0.003796 -9.077132 -0.075423 -0.008206 9.077129 -0.000000 0.000000 0.000000 -0.762634 1.048422 -0.104724 0.000000 0.000000 0.000000 -0.000000 0.000000 0.000000 1.762643 0.639664 -0.398721 -3.173795 -1.507445 0.183861 0.235838 -3.728876 0.165455 0.000000 0.000000 0.000000 0.000000 0.000000 0.000000 2.284390 -0.549968 0.111245 -3.961682 0.514257 0.422565 5.640545 3.843955 -3.543752 4.500375 -10.482097 2.427505 0.000000 0.000000 0.000000 0.000000 0.000000 0.000000 -0.075423 -0.008206 9.077129 -0.000000 0.000000 0.000000 -0.889932 -10.375014 -6.152273 0.000000 0.000000 0.000000 -0.075423 -0.008206 9.077129 -0.000000 0.000000 0.000000 -0.000000 0.000000 0.000000 0.000000 0.000000 0.000000
37.836746 66.339406 366.609903 0.101864 0.013158 -9.008356 -0.098547 -0.028945 9.008319 -0.000000 0.000000 0.000000 -0.890869 1.026912 -0.100494 0.000000 0.000000 0.000000 -0.000000 0.000000 0.000000 1.909944 0.651883 -0.433791 -1.905083 -0.665961 0.411852 -2.510385 -4.083080 0.284404 0.000000 0.000000 0.000000 0.000000 0.000000 0.000000 2.232952 -0.414080 0.132886 -3.765311 0.266571 0.352766 2.097578 2.421641 -1.911685 2.939916 -10.037917 2.088222 0.000000 0.000000 0.000000 0.000000 0.000000 0.000000 -0.098547 -0.028945 9.008319 -0.863782 0.473359 -0.285200 -1.892488 -23.510853 -16.493506 0.000000 0.000000 0.000000 -0.098547 -0.028945 9.008319 -0.000000 0.000000 0.000000 -0.000000 0.000000 0.000000 0.000000 0.000000 0.000000
37.823436 66.339341 366.590014 0.104420 0.024029 -8.968088 -0.099397 -0.040012 8.968031 -0.000000 0.000000 0.000000 -1.004401 1.133645 -0.109671 0.000000 0.000000 0.000000 -0.000000 0.000000 0.000000 1.911177 0.513300 -0.437186 -2.532824 0.196655 0.768156 -3.914066 -4.941880 0.265448 0.000000 0.000000 0.000000 0.000000 0.000000 0.000000 2.747830 -0.860387 0.098052 -6.227273 0.839470 1.019699 7.333363 1.600346 -2.680555 -2.612727 -9.011347 2.577333 0.000000 0.000000 0.000000 0.000000 0.000000 0.000000 -0.099397 -0.040012 8.968031 -0.839672 0.449149 -0.276305 -2.016836 -24.377041 -17.704782 0.000000 0.000000 0.000000 -0.099397 -0.040012 8.968031 -0.000000 0.000000 0.000000 -0.000000 0.000000 0.000000 0.000000 0.000000 0.000000
